<?xml version="1.0" standalone="no"?>
<!DOCTYPE svg PUBLIC "-//W3C//DTD SVG 20010904//EN"
 "http://www.w3.org/TR/2001/REC-SVG-20010904/DTD/svg10.dtd">
<svg version="1.0" xmlns="http://www.w3.org/2000/svg"
 width="828.000000pt" height="1280.000000pt" viewBox="0 0 828.000000 1280.000000"
 preserveAspectRatio="xMidYMid meet">
<g transform="translate(0.000000,1280.000000) scale(0.100000,-0.100000)"
fill="#000000" stroke="none">
<path d="M5126 12780 c-3 -8 -39 -145 -81 -305 -42 -159 -80 -293 -83 -297 -4
-3 -146 -19 -317 -35 l-310 -29 251 -168 c138 -92 257 -172 265 -176 11 -7 1
-65 -57 -325 -38 -173 -69 -315 -67 -315 1 0 111 90 245 200 133 110 244 200
248 200 3 -1 124 -74 270 -164 146 -90 266 -163 267 -162 1 1 -47 134 -107
296 -61 162 -110 299 -109 304 0 6 104 103 230 215 126 112 227 207 224 209
-3 3 -123 0 -267 -7 -145 -7 -282 -13 -306 -14 l-43 -2 -115 275 c-64 151
-119 284 -124 295 -6 16 -9 17 -14 5z"/>
<path d="M6660 12459 l-105 -210 -30 5 c-64 11 -396 47 -405 44 -5 -2 61 -75
145 -163 85 -88 154 -164 155 -169 0 -4 -40 -98 -90 -209 -49 -110 -90 -204
-90 -208 0 -4 45 17 101 47 266 143 298 157 319 143 10 -8 87 -79 169 -158 83
-79 151 -137 151 -130 0 8 -15 111 -34 229 -19 118 -32 218 -30 221 2 4 93 58
201 120 l198 114 -223 35 c-122 20 -226 40 -231 46 -4 5 -27 109 -51 232 -23
122 -43 222 -44 222 -1 0 -49 -95 -106 -211z"/>
<path d="M2554 12093 c3 -10 24 -92 46 -182 39 -155 40 -164 23 -177 -10 -7
-78 -55 -150 -106 l-133 -93 38 -7 c20 -4 102 -11 182 -15 l145 -8 50 -170
c28 -93 53 -176 55 -182 3 -7 35 65 72 160 l66 172 186 0 c102 0 186 1 186 2
0 1 -62 54 -137 118 -76 65 -139 121 -141 125 -1 4 24 85 57 180 33 96 59 175
58 176 -1 1 -69 -43 -152 -97 -82 -54 -154 -99 -158 -99 -5 0 -71 50 -148 110
-76 61 -141 110 -145 110 -3 0 -3 -8 0 -17z"/>
<path d="M7504 10585 c4 -105 9 -211 12 -236 l5 -45 -210 -90 c-116 -49 -210
-91 -211 -94 0 -3 96 -32 213 -64 116 -33 215 -62 219 -65 3 -3 14 -108 24
-233 10 -126 20 -228 23 -228 4 1 60 86 126 190 68 108 126 189 135 189 8 1
107 -22 220 -49 112 -27 206 -47 208 -45 2 2 -59 84 -136 183 l-140 179 118
202 c66 110 117 201 115 201 -2 0 -97 -36 -211 -80 -114 -44 -211 -79 -215
-78 -4 2 -73 82 -154 178 l-147 174 6 -189z"/>
<path d="M4805 10707 c-12 -29 -165 -365 -340 -747 -174 -382 -318 -703 -320
-713 -2 -10 -123 -276 -269 -590 -607 -1313 -3061 -6614 -3483 -7527 -190
-410 -356 -769 -369 -797 l-24 -53 178 -86 c97 -47 227 -110 288 -139 l112
-53 105 226 c87 189 1384 2989 2729 5897 171 369 436 942 590 1275 154 333
379 819 500 1080 121 261 221 476 223 478 2 2 22 -6 44 -18 l42 -21 28 63 c31
68 506 1112 602 1321 l58 127 -112 57 c-62 31 -212 105 -335 164 l-223 108
-24 -52z"/>
<path d="M2456 9777 c-27 -171 -52 -315 -55 -320 -4 -4 -141 -34 -306 -67
-164 -33 -300 -62 -302 -64 -2 -2 120 -68 271 -147 255 -133 276 -146 276
-171 0 -14 -16 -158 -35 -319 -19 -161 -33 -294 -31 -296 2 -2 102 98 223 223
l220 226 284 -135 c156 -74 285 -134 287 -132 1 1 -61 129 -138 284 -77 155
-140 284 -140 287 0 2 95 109 211 236 116 128 207 234 202 235 -5 2 -137 -17
-293 -42 -156 -25 -292 -45 -301 -45 -13 0 -60 79 -169 280 -84 154 -153 280
-154 280 0 0 -23 -141 -50 -313z"/>
<path d="M6322 9858 c-51 -76 -98 -138 -105 -138 -6 0 -78 17 -159 38 -82 21
-148 36 -148 33 0 -3 45 -64 100 -136 l99 -129 -19 -31 c-100 -164 -149 -250
-141 -253 4 -1 33 7 62 19 30 11 95 36 146 54 l92 34 106 -130 c102 -124 124
-146 112 -115 -3 8 -7 85 -8 171 l-2 158 129 53 c71 30 140 59 154 65 25 11
-19 27 -270 98 -23 7 -25 13 -33 97 -4 49 -11 125 -15 169 l-7 80 -93 -137z"/>
<path d="M6670 8415 c-58 -113 -109 -205 -114 -205 -5 0 -105 14 -224 31 -118
16 -215 29 -217 27 -2 -2 66 -77 151 -167 85 -91 154 -168 154 -172 0 -4 -43
-98 -95 -210 -53 -111 -94 -203 -93 -204 2 -2 95 42 208 96 l204 100 163 -163
c90 -90 163 -159 163 -154 0 5 -14 111 -30 234 -17 124 -30 225 -28 227 2 1
93 51 202 110 110 60 195 110 190 112 -5 1 -105 20 -222 42 -118 22 -215 41
-217 43 -2 2 -20 98 -40 213 -20 116 -39 218 -43 227 -5 12 -37 -42 -112 -187z"/>
</g>
</svg>
